<svg width="691" height="729" viewBox="0 0 691 729" fill="none" xmlns="http://www.w3.org/2000/svg">
<path d="M670.423 28.4536C705.644 75.3612 673.02 185.57 670.91 275.489C668.962 365.409 697.529 434.877 689.251 515.221C681.136 595.727 636.338 687.107 565.571 716.972C494.966 746.999 398.229 715.349 301.006 681.751C203.782 648.153 105.747 612.282 49.9125 540.379C-5.75974 468.313 -19.0692 359.89 31.5715 296.103C82.3745 232.152 197.128 212.675 274.225 173.234C351.16 133.793 390.276 74.3873 461.368 36.4068C532.297 -1.57373 635.202 -18.2916 670.423 28.4536Z" fill="#FFF2EC"/>
<rect x="302.285" y="106.151" width="188.401" height="611.601" rx="31.6345" fill="#FF4F24"/>
<rect x="184.184" y="183.48" width="424.606" height="456.943" rx="44.2883" fill="#E5532F"/>
<rect x="215" y="231" width="362.04" height="362.04" fill="url(#paint0_linear_239_787)"/>
<rect x="241.012" y="259.12" width="310.018" height="213.006" fill="white" fill-opacity="0.2"/>
<path d="M344.201 321.653V365.22H334.119V329.744H325.405V321.653H344.201ZM366.707 338.021C372.848 338.021 377.371 339.245 380.275 341.693C383.221 344.142 384.694 347.419 384.694 351.527C384.694 354.183 384.03 356.61 382.702 358.809C381.375 360.967 379.341 362.709 376.603 364.037C373.906 365.323 370.566 365.967 366.582 365.967C363.512 365.967 360.483 365.572 357.496 364.784C354.55 363.954 352.039 362.792 349.965 361.299L353.948 353.581C355.608 354.826 357.516 355.801 359.674 356.506C361.832 357.17 364.051 357.502 366.333 357.502C368.865 357.502 370.856 357.004 372.308 356.008C373.761 355.013 374.487 353.623 374.487 351.838C374.487 349.971 373.719 348.56 372.184 347.606C370.69 346.652 368.076 346.175 364.342 346.175H353.201L355.442 321.653H382.018V329.744H363.844L363.159 338.021H366.707ZM418.597 342.316C420.755 343.395 422.394 344.805 423.514 346.548C424.676 348.291 425.257 350.303 425.257 352.585C425.257 355.282 424.489 357.647 422.954 359.68C421.419 361.672 419.261 363.228 416.481 364.348C413.701 365.427 410.485 365.967 406.834 365.967C403.183 365.967 399.967 365.427 397.187 364.348C394.448 363.228 392.312 361.672 390.776 359.68C389.283 357.647 388.536 355.282 388.536 352.585C388.536 350.303 389.096 348.291 390.216 346.548C391.378 344.805 393.017 343.395 395.133 342.316C393.515 341.32 392.27 340.075 391.399 338.582C390.527 337.046 390.092 335.304 390.092 333.353C390.092 330.822 390.797 328.623 392.208 326.756C393.619 324.889 395.589 323.458 398.12 322.462C400.652 321.424 403.556 320.906 406.834 320.906C410.153 320.906 413.079 321.424 415.61 322.462C418.182 323.458 420.174 324.889 421.585 326.756C422.995 328.623 423.701 330.822 423.701 333.353C423.701 335.304 423.265 337.046 422.394 338.582C421.522 340.075 420.257 341.32 418.597 342.316ZM406.834 328.312C404.801 328.312 403.162 328.81 401.917 329.806C400.714 330.76 400.112 332.088 400.112 333.789C400.112 335.449 400.714 336.756 401.917 337.71C403.12 338.665 404.759 339.142 406.834 339.142C408.909 339.142 410.568 338.665 411.813 337.71C413.058 336.756 413.68 335.449 413.68 333.789C413.68 332.088 413.058 330.76 411.813 329.806C410.568 328.81 408.909 328.312 406.834 328.312ZM406.834 358.56C409.365 358.56 411.357 358 412.809 356.88C414.303 355.718 415.049 354.183 415.049 352.274C415.049 350.365 414.303 348.851 412.809 347.731C411.357 346.61 409.365 346.05 406.834 346.05C404.344 346.05 402.373 346.61 400.921 347.731C399.469 348.851 398.743 350.365 398.743 352.274C398.743 354.224 399.469 355.759 400.921 356.88C402.373 358 404.344 358.56 406.834 358.56ZM445.183 320.906C451.282 320.906 456.054 322.773 459.498 326.507C462.942 330.2 464.663 335.532 464.663 342.503C464.663 347.44 463.73 351.672 461.863 355.199C460.037 358.726 457.444 361.402 454.083 363.228C450.722 365.054 446.842 365.967 442.444 365.967C440.121 365.967 437.901 365.718 435.785 365.22C433.669 364.68 431.864 363.933 430.37 362.979L434.104 355.573C436.22 357.025 438.938 357.751 442.258 357.751C445.95 357.751 448.876 356.672 451.033 354.515C453.191 352.316 454.353 349.162 454.519 345.054C451.905 347.668 448.295 348.975 443.689 348.975C440.909 348.975 438.378 348.415 436.096 347.295C433.814 346.175 432.009 344.598 430.681 342.565C429.353 340.49 428.689 338.104 428.689 335.407C428.689 332.503 429.416 329.951 430.868 327.752C432.32 325.553 434.291 323.872 436.78 322.711C439.312 321.507 442.112 320.906 445.183 320.906ZM445.93 341.445C448.129 341.445 449.913 340.843 451.282 339.64C452.693 338.395 453.398 336.818 453.398 334.909C453.398 333.001 452.714 331.445 451.344 330.242C450.017 329.038 448.17 328.437 445.805 328.437C443.648 328.437 441.884 329.018 440.515 330.179C439.187 331.341 438.523 332.918 438.523 334.909C438.523 336.901 439.187 338.499 440.515 339.702C441.884 340.864 443.689 341.445 445.93 341.445Z" fill="white"/>
<path d="M355.352 419.812C353.91 419.812 352.512 419.621 351.157 419.239C349.819 418.839 348.742 418.327 347.925 417.701L349.358 414.522C350.14 415.095 351.07 415.556 352.147 415.903C353.224 416.251 354.301 416.424 355.378 416.424C356.577 416.424 357.463 416.251 358.037 415.903C358.61 415.538 358.897 415.061 358.897 414.47C358.897 414.035 358.723 413.679 358.375 413.401C358.045 413.106 357.611 412.871 357.072 412.698C356.551 412.524 355.839 412.333 354.935 412.124C353.545 411.794 352.407 411.464 351.521 411.134C350.635 410.804 349.871 410.274 349.228 409.544C348.603 408.815 348.29 407.842 348.29 406.626C348.29 405.566 348.577 404.61 349.15 403.759C349.723 402.89 350.583 402.204 351.73 401.7C352.894 401.196 354.31 400.944 355.978 400.944C357.142 400.944 358.28 401.083 359.392 401.361C360.504 401.639 361.477 402.039 362.311 402.56L361.007 405.766C359.322 404.81 357.637 404.332 355.952 404.332C354.77 404.332 353.893 404.523 353.32 404.906C352.764 405.288 352.486 405.792 352.486 406.417C352.486 407.043 352.807 407.512 353.45 407.824C354.11 408.12 355.109 408.415 356.447 408.71C357.837 409.041 358.975 409.371 359.861 409.701C360.747 410.031 361.503 410.552 362.128 411.264C362.771 411.977 363.092 412.941 363.092 414.157C363.092 415.2 362.797 416.155 362.206 417.024C361.633 417.875 360.764 418.553 359.6 419.056C358.436 419.56 357.02 419.812 355.352 419.812ZM372.498 404.697H366.661V401.257H382.558V404.697H376.72V419.5H372.498V404.697ZM401.951 416.112V419.5H387.826V401.257H401.612V404.645H392.022V408.606H400.492V411.89H392.022V416.112H401.951ZM416.204 401.257C417.819 401.257 419.218 401.526 420.399 402.065C421.598 402.604 422.519 403.368 423.162 404.358C423.805 405.349 424.126 406.521 424.126 407.876C424.126 409.214 423.805 410.387 423.162 411.395C422.519 412.385 421.598 413.149 420.399 413.688C419.218 414.209 417.819 414.47 416.204 414.47H412.529V419.5H408.307V401.257H416.204ZM415.969 411.03C417.237 411.03 418.202 410.761 418.862 410.222C419.522 409.666 419.852 408.884 419.852 407.876C419.852 406.851 419.522 406.07 418.862 405.531C418.202 404.975 417.237 404.697 415.969 404.697H412.529V411.03H415.969ZM436.385 419.812C434.943 419.812 433.545 419.621 432.19 419.239C430.852 418.839 429.775 418.327 428.958 417.701L430.392 414.522C431.173 415.095 432.103 415.556 433.18 415.903C434.257 416.251 435.334 416.424 436.412 416.424C437.61 416.424 438.496 416.251 439.07 415.903C439.643 415.538 439.93 415.061 439.93 414.47C439.93 414.035 439.756 413.679 439.408 413.401C439.078 413.106 438.644 412.871 438.105 412.698C437.584 412.524 436.872 412.333 435.968 412.124C434.579 411.794 433.441 411.464 432.555 411.134C431.668 410.804 430.904 410.274 430.261 409.544C429.636 408.815 429.323 407.842 429.323 406.626C429.323 405.566 429.61 404.61 430.183 403.759C430.756 402.89 431.616 402.204 432.763 401.7C433.927 401.196 435.343 400.944 437.011 400.944C438.175 400.944 439.313 401.083 440.425 401.361C441.537 401.639 442.51 402.039 443.344 402.56L442.041 405.766C440.355 404.81 438.67 404.332 436.985 404.332C435.803 404.332 434.926 404.523 434.353 404.906C433.797 405.288 433.519 405.792 433.519 406.417C433.519 407.043 433.84 407.512 434.483 407.824C435.143 408.12 436.142 408.415 437.48 408.71C438.87 409.041 440.008 409.371 440.894 409.701C441.78 410.031 442.536 410.552 443.161 411.264C443.804 411.977 444.125 412.941 444.125 414.157C444.125 415.2 443.83 416.155 443.239 417.024C442.666 417.875 441.797 418.553 440.633 419.056C439.469 419.56 438.053 419.812 436.385 419.812Z" fill="#A48D3B"/>
<line x1="277.568" y1="555.781" x2="335.214" y2="555.781" stroke="#F1F46C" stroke-width="4.21794"/>
<path d="M316.696 513.478L310.623 525.624C309.89 527.102 307.764 527.053 307.092 525.55L300.139 510.117L296.473 518.879H284.975L307.275 541.667C308.143 542.559 309.548 542.559 310.415 541.667L332.728 518.879H319.397L316.696 513.478ZM335.453 492.717L335.159 492.412C328.866 485.984 318.566 485.984 312.261 492.412L308.851 495.906L305.442 492.424C299.149 485.984 288.836 485.984 282.543 492.424L282.25 492.717C276.299 498.802 276.043 508.492 281.358 514.968H293.871L298.257 504.436C298.917 502.859 301.141 502.823 301.85 504.387L308.961 520.186L314.949 508.223C315.67 506.782 317.723 506.782 318.443 508.223L321.816 514.968H336.345C341.66 508.492 341.403 498.802 335.453 492.717V492.717Z" fill="white"/>
<line x1="366.848" y1="555.781" x2="424.493" y2="555.781" stroke="#F1F46C" stroke-width="4.21794"/>
<path d="M410.448 504.698H398.109L402.664 490.82C403.092 489.195 401.862 487.591 400.183 487.591H384.787C383.504 487.591 382.414 488.543 382.243 489.815L378.821 515.475C378.618 517.015 379.816 518.384 381.366 518.384H394.057L389.128 539.179C388.743 540.804 389.984 542.333 391.619 542.333C392.517 542.333 393.373 541.863 393.843 541.05L412.661 508.547C413.655 506.847 412.426 504.698 410.448 504.698Z" fill="white"/>
<line x1="456.127" y1="555.781" x2="513.772" y2="555.781" stroke="#F1F46C" stroke-width="4.21794"/>
<path d="M482.981 541.229C467.446 518.708 464.562 516.396 464.562 508.119C464.562 496.782 473.753 487.591 485.091 487.591C496.428 487.591 505.619 496.782 505.619 508.119C505.619 516.396 502.735 518.708 487.2 541.229C486.181 542.701 484 542.701 482.981 541.229ZM485.091 516.673C489.815 516.673 493.644 512.843 493.644 508.119C493.644 503.396 489.815 499.566 485.091 499.566C480.367 499.566 476.537 503.396 476.537 508.119C476.537 512.843 480.367 516.673 485.091 516.673Z" fill="white"/>
<rect x="91.3887" y="293.146" width="217.927" height="145.519" rx="11.9508" fill="url(#paint1_linear_239_787)"/>
<line x1="196.836" y1="330.756" x2="289.631" y2="330.756" stroke="#F1F46C" stroke-width="3.51495"/>
<line x1="196.836" y1="385.59" x2="289.631" y2="385.59" stroke="#F1F46C" stroke-width="3.51495"/>
<line x1="196.836" y1="406.68" x2="289.631" y2="406.68" stroke="#F1F46C" stroke-width="3.51495"/>
<circle cx="144.112" cy="366.257" r="37.6099" stroke="#F1F46C" stroke-width="2.10897"/>
<path d="M139.772 369.027H137.919V371.416H135.352V369.027H129.226V367.256L134.588 360.041H137.35L132.378 366.882H135.433V364.753H137.919V366.882H139.772V369.027ZM149.026 369.271V371.416H140.43V369.709L144.817 365.566C145.283 365.122 145.597 364.742 145.76 364.428C145.922 364.103 146.003 363.784 146.003 363.47C146.003 363.015 145.846 362.668 145.532 362.43C145.229 362.18 144.779 362.056 144.183 362.056C143.685 362.056 143.235 362.153 142.835 362.348C142.434 362.532 142.098 362.814 141.827 363.193L139.91 361.958C140.354 361.297 140.966 360.783 141.746 360.415C142.526 360.035 143.42 359.846 144.427 359.846C145.272 359.846 146.009 359.987 146.637 360.268C147.276 360.539 147.769 360.929 148.116 361.438C148.473 361.937 148.652 362.527 148.652 363.21C148.652 363.827 148.522 364.407 148.262 364.948C148.002 365.49 147.498 366.107 146.751 366.801L144.135 369.271H149.026ZM157.895 365.436C158.459 365.717 158.887 366.086 159.179 366.541C159.482 366.996 159.634 367.521 159.634 368.117C159.634 368.821 159.434 369.439 159.033 369.969C158.632 370.489 158.069 370.896 157.343 371.188C156.617 371.47 155.778 371.611 154.824 371.611C153.871 371.611 153.031 371.47 152.306 371.188C151.591 370.896 151.033 370.489 150.632 369.969C150.242 369.439 150.047 368.821 150.047 368.117C150.047 367.521 150.193 366.996 150.486 366.541C150.789 366.086 151.217 365.717 151.769 365.436C151.347 365.176 151.022 364.851 150.794 364.461C150.567 364.06 150.453 363.605 150.453 363.096C150.453 362.435 150.637 361.861 151.006 361.373C151.374 360.886 151.888 360.512 152.549 360.252C153.21 359.981 153.968 359.846 154.824 359.846C155.691 359.846 156.455 359.981 157.115 360.252C157.787 360.512 158.307 360.886 158.675 361.373C159.044 361.861 159.228 362.435 159.228 363.096C159.228 363.605 159.114 364.06 158.887 364.461C158.659 364.851 158.329 365.176 157.895 365.436ZM154.824 361.78C154.293 361.78 153.865 361.91 153.54 362.17C153.226 362.419 153.069 362.765 153.069 363.21C153.069 363.643 153.226 363.984 153.54 364.233C153.855 364.482 154.283 364.607 154.824 364.607C155.366 364.607 155.799 364.482 156.124 364.233C156.449 363.984 156.612 363.643 156.612 363.21C156.612 362.765 156.449 362.419 156.124 362.17C155.799 361.91 155.366 361.78 154.824 361.78ZM154.824 369.677C155.485 369.677 156.005 369.531 156.384 369.238C156.774 368.935 156.969 368.534 156.969 368.036C156.969 367.537 156.774 367.142 156.384 366.849C156.005 366.557 155.485 366.411 154.824 366.411C154.174 366.411 153.66 366.557 153.281 366.849C152.901 367.142 152.712 367.537 152.712 368.036C152.712 368.545 152.901 368.946 153.281 369.238C153.66 369.531 154.174 369.677 154.824 369.677Z" fill="white"/>
<defs>
<linearGradient id="paint0_linear_239_787" x1="396.02" y1="231" x2="396.02" y2="593.04" gradientUnits="userSpaceOnUse">
<stop stop-color="#C6D147"/>
<stop offset="1" stop-color="#FFA95A"/>
</linearGradient>
<linearGradient id="paint1_linear_239_787" x1="309.315" y1="366.257" x2="91.3887" y2="366.257" gradientUnits="userSpaceOnUse">
<stop stop-color="#FFA95A"/>
<stop offset="1" stop-color="#C6D147"/>
</linearGradient>
</defs>
</svg>
