<svg width="193" height="66" viewBox="0 0 193 66" fill="none" xmlns="http://www.w3.org/2000/svg">
<path d="M105.498 21.6205V45H101.056L89.3994 30.8053V45H84.0555V21.6205H88.5311L100.154 35.8152V21.6205H105.498ZM128.764 27.0312V45H123.821V42.8624C123.131 43.6418 122.307 44.2429 121.35 44.666C120.392 45.0668 119.357 45.2672 118.244 45.2672C115.883 45.2672 114.013 44.5881 112.633 43.2298C111.252 41.8716 110.562 39.8565 110.562 37.1846V27.0312H115.772V36.4164C115.772 39.311 116.986 40.7583 119.413 40.7583C120.66 40.7583 121.662 40.3575 122.419 39.5559C123.176 38.7321 123.554 37.5186 123.554 35.9154V27.0312H128.764ZM145.181 44.1316C144.669 44.5101 144.034 44.7996 143.277 45C142.542 45.1781 141.763 45.2672 140.939 45.2672C138.802 45.2672 137.143 44.7217 135.963 43.6306C134.805 42.5396 134.226 40.9364 134.226 38.8211V31.4399H131.454V27.432H134.226V23.0566H139.436V27.432H143.912V31.4399H139.436V38.7543C139.436 39.5114 139.626 40.1014 140.004 40.5245C140.405 40.9253 140.962 41.1257 141.674 41.1257C142.498 41.1257 143.199 40.903 143.778 40.4577L145.181 44.1316ZM153.082 29.4025C153.706 28.5341 154.541 27.8773 155.587 27.432C156.656 26.9866 157.881 26.764 159.261 26.764V31.5735C158.682 31.5289 158.293 31.5067 158.092 31.5067C156.6 31.5067 155.431 31.9297 154.585 32.7758C153.739 33.5997 153.316 34.8466 153.316 36.5166V45H148.106V27.0312H153.082V29.4025ZM162.359 27.0312H167.569V45H162.359V27.0312ZM164.964 24.5262C164.007 24.5262 163.228 24.2479 162.626 23.6912C162.025 23.1346 161.725 22.4443 161.725 21.6205C161.725 20.7966 162.025 20.1064 162.626 19.5497C163.228 18.9931 164.007 18.7147 164.964 18.7147C165.922 18.7147 166.701 18.9819 167.302 19.5163C167.903 20.0507 168.204 20.7187 168.204 21.5203C168.204 22.3887 167.903 23.1123 167.302 23.6912C166.701 24.2479 165.922 24.5262 164.964 24.5262ZM180.955 45.2672C179.063 45.2672 177.359 44.8775 175.845 44.0982C174.353 43.2966 173.184 42.1945 172.338 40.7917C171.492 39.3889 171.069 37.7969 171.069 36.0156C171.069 34.2343 171.492 32.6423 172.338 31.2395C173.184 29.8367 174.353 28.7457 175.845 27.9663C177.359 27.1648 179.063 26.764 180.955 26.764C182.848 26.764 184.54 27.1648 186.032 27.9663C187.524 28.7457 188.693 29.8367 189.539 31.2395C190.385 32.6423 190.808 34.2343 190.808 36.0156C190.808 37.7969 190.385 39.3889 189.539 40.7917C188.693 42.1945 187.524 43.2966 186.032 44.0982C184.54 44.8775 182.848 45.2672 180.955 45.2672ZM180.955 40.9921C182.291 40.9921 183.382 40.5468 184.228 39.6561C185.097 38.7432 185.531 37.5297 185.531 36.0156C185.531 34.5015 185.097 33.2991 184.228 32.4085C183.382 31.4955 182.291 31.0391 180.955 31.0391C179.619 31.0391 178.517 31.4955 177.649 32.4085C176.78 33.2991 176.346 34.5015 176.346 36.0156C176.346 37.5297 176.78 38.7432 177.649 39.6561C178.517 40.5468 179.619 40.9921 180.955 40.9921Z" fill="#1C1C1C"/>
<line x1="74.6071" y1="0.466471" x2="74.6071" y2="61.9846" stroke="#1C1C1C" stroke-width="0.932942" stroke-linecap="round"/>
<circle cx="26.6994" cy="35.1095" r="21.1467" fill="#E5532F"/>
<circle r="21.1467" transform="matrix(-1 0 0 1 39.9158 35.1095)" fill="#E5532F"/>
<path d="M31.6535 4.31152C31.6535 4.31152 32.3144 4.71181 33.3056 6.95485C34.2967 9.1979 33.3056 17.1978 33.3056 17.1978" stroke="#E5532F" stroke-width="1.85034" stroke-linecap="round"/>
<path d="M49.4755 3.6941C49.4755 3.6941 45.4808 2.37329 41.6944 3.09332C37.908 3.81336 34.3353 8.94989 34.3353 8.94989" stroke="#E5532F" stroke-width="1.85034" stroke-linecap="square"/>
<path d="M49.4759 4.34589C49.4759 4.34589 49.4759 8.51141 45.6931 8.91167C41.9104 9.31192 40.541 8.59883 39.4167 8.51141C36.6109 7.94616 34.3357 9.66343 34.3357 9.66343" stroke="#E5532F" stroke-width="1.85034" stroke-linecap="square"/>
<circle cx="43.4833" cy="30.892" r="4.62584" fill="white"/>
<circle cx="23.1297" cy="30.892" r="4.62584" fill="white"/>
<path d="M0 31.2765C0 29.7436 1.24264 28.501 2.7755 28.501V28.501C3.28646 28.501 3.70067 28.9152 3.70067 29.4261V40.5282C3.70067 41.0391 3.28646 41.4533 2.7755 41.4533V41.4533C1.24264 41.4533 0 40.2107 0 38.6778V31.2765Z" fill="#E5532F"/>
<path d="M66.6133 38.6781C66.6133 40.211 65.3706 41.4536 63.8378 41.4536V41.4536C63.3268 41.4536 62.9126 41.0394 62.9126 40.5284V29.4264C62.9126 28.9155 63.3268 28.5013 63.8378 28.5013V28.5013C65.3706 28.5013 66.6133 29.7439 66.6133 31.2768V38.6781Z" fill="#E5532F"/>
<line x1="40.6018" y1="42.4135" x2="39.5315" y2="44.9808" stroke="white" stroke-width="3.70212" stroke-linecap="round"/>
<line x1="1.85106" y1="-1.85106" x2="4.63252" y2="-1.85106" transform="matrix(0.38478 0.923008 0.923008 -0.38478 26.9648 39.9927)" stroke="white" stroke-width="3.70212" stroke-linecap="round"/>
<line x1="27.2143" y1="45.2813" x2="39.3723" y2="45.2813" stroke="white" stroke-width="3.70212" stroke-linecap="round"/>
</svg>
